<?xml version="1.0" standalone="no"?>
<!DOCTYPE svg PUBLIC "-//W3C//DTD SVG 20010904//EN"
 "http://www.w3.org/TR/2001/REC-SVG-20010904/DTD/svg10.dtd">
<svg version="1.0" xmlns="http://www.w3.org/2000/svg"
 width="37.000000pt" height="50.000000pt" viewBox="0 0 37.000000 50.000000"
 preserveAspectRatio="xMidYMid meet">

<g transform="translate(0.000000,50.000000) scale(0.100000,-0.100000)"
fill="#000000" stroke="none">
<path d="M12 470 c-8 -13 -12 -67 -12 -168 0 -134 2 -152 22 -192 13 -24 40
-58 61 -74 34 -27 47 -31 102 -31 56 0 68 4 102 31 58 47 76 85 80 173 3 42 0
101 -5 131 -9 50 -10 45 -11 -66 -1 -106 -4 -126 -24 -164 -45 -86 -152 -113
-231 -59 -64 43 -71 66 -74 242 -4 168 1 191 42 185 19 -3 21 -10 24 -100 1
-54 7 -98 12 -98 6 0 10 18 10 40 0 72 60 66 71 -6 l5 -39 5 39 c8 72 69 78
69 6 0 -22 5 -40 10 -40 6 0 10 34 10 81 0 47 -4 78 -9 74 -5 -3 -7 -17 -5
-31 4 -24 2 -26 -20 -20 -14 3 -34 1 -45 -6 -15 -9 -23 -9 -35 1 -8 7 -24 10
-36 6 -18 -6 -20 -2 -20 30 0 20 -5 45 -10 56 -15 26 -71 26 -88 -1z"/>
<path d="M110 240 c0 -6 33 -10 80 -10 47 0 80 4 80 10 0 6 -33 10 -80 10 -47
0 -80 -4 -80 -10z"/>
<path d="M110 200 c0 -6 33 -10 80 -10 47 0 80 4 80 10 0 6 -33 10 -80 10 -47
0 -80 -4 -80 -10z"/>
<path d="M110 160 c0 -6 33 -10 80 -10 47 0 80 4 80 10 0 6 -33 10 -80 10 -47
0 -80 -4 -80 -10z"/>
<path d="M133 113 c15 -2 37 -2 50 0 12 2 0 4 -28 4 -27 0 -38 -2 -22 -4z"/>
</g>
</svg>
